<svg width="72" height="72" viewBox="0 0 72 72" fill="none" xmlns="http://www.w3.org/2000/svg">
<path fill-rule="evenodd" clip-rule="evenodd" d="M35.9999 2.46295C35.9289 2.46295 35.8565 2.46295 35.7855 2.46295C26.2493 2.46295 17.071 4.7084 8.17827 9.23531C4.57206 17.9276 2.53524 26.7639 2.42874 35.7833C2.28526 44.7291 4.1076 53.8909 8.14277 63.2357C17.429 67.3276 26.7137 69.429 35.9999 69.537C45.2862 69.429 54.5709 67.3276 63.8571 63.2357C67.8923 53.8909 69.7146 44.7291 69.5712 35.7833C69.4647 26.7639 67.4278 17.9276 63.8216 9.23531C54.9289 4.7084 45.7491 2.46295 36.2144 2.46295C36.1434 2.46295 36.0709 2.46295 35.9999 2.46295Z" fill="#FEFEFE"/>
<path d="M6.67845 7.24335C16.0357 2.39095 25.7494 0 35.7855 0C35.8565 0 35.929 0 36 0C36.071 0 36.1435 0 36.2145 0C46.2506 0 55.9643 2.39095 65.3216 7.24335L65.8925 7.85834C69.7147 16.9856 71.892 26.2945 72 35.7473C72 35.9273 72 36.0727 72 36.2542V36.9052C71.9645 45.9965 70.0357 55.2678 65.8925 64.6847L65.2506 65.2996C55.4999 69.6825 45.7492 71.892 36 72C26.2493 71.892 16.5001 69.6825 6.74945 65.2996L6.10749 64.6847C1.96434 55.2678 0.0355 45.9965 0 36.9052V36.2542C0 36.0727 0 35.9273 0 35.7473C0.107979 26.2945 2.28532 16.9856 6.10749 7.85834L6.67845 7.24335ZM36 2.46295C35.929 2.46295 35.8565 2.46295 35.7855 2.46295C26.2493 2.46295 17.0711 4.7084 8.17832 9.23531C4.57211 17.9276 2.53529 26.7639 2.42879 35.7833C2.28532 44.7291 4.10765 53.8909 8.14282 63.2357C17.429 67.3276 26.7138 69.4291 36 69.5371C45.2862 69.4291 54.571 67.3276 63.8572 63.2357C67.8923 53.8909 69.7147 44.7291 69.5712 35.7833C69.4647 26.7639 67.4279 17.9276 63.8217 9.23531C54.9289 4.7084 45.7492 2.46295 36.2145 2.46295C36.1435 2.46295 36.071 2.46295 36 2.46295Z" fill="#003399"/>
<path fill-rule="evenodd" clip-rule="evenodd" d="M36.6417 56.1003C36.1432 49.184 36.4642 41.9766 34.4289 35.3843C32.5355 29.2269 25.3571 25.714 25.2136 18.9416C25.0716 13.6542 29.0358 7.53283 36.4642 7.53283C43.4281 7.49683 47.7503 12.6402 48.2502 18.3626C48.8567 24.9895 40.9283 29.4444 38.8575 35.7457C36.7142 42.1926 37.3206 49.328 36.6417 56.1003Z" fill="#003399"/>
<path fill-rule="evenodd" clip-rule="evenodd" d="M39.393 54.4354C39.106 48.422 39.106 42.6636 40.7494 37.5577C42.5717 31.7618 46.3569 26.8734 52.142 25.2805C56.1061 24.193 61.9281 28.9014 60.9992 33.7178C60.2138 37.5937 56.3931 42.1566 50.2501 42.6636C47.3923 42.9171 46.1779 45.236 44.3926 46.5755C52.3919 45.779 57.5705 42.5916 61.1782 39.2602C61.7137 42.0846 62.0716 46.829 59.8928 48.4595C55.6062 51.5374 51.642 49.0385 46.6069 50.4874C43.7861 51.3199 42.0348 53.1304 39.393 54.4354Z" fill="#003399"/>
<path fill-rule="evenodd" clip-rule="evenodd" d="M33.9277 54.4354C34.2501 48.422 34.2146 42.6636 32.6068 37.5577C30.7859 31.7618 27.0007 26.8734 21.2142 25.2805C17.25 24.193 11.3925 28.9014 12.3569 33.7178C13.1424 37.5937 16.9646 42.1566 23.1075 42.6636C25.9283 42.9171 27.1782 45.236 28.9636 46.5755C20.9287 45.779 15.7857 42.5916 12.178 39.2602C11.6425 42.0846 11.286 46.829 13.4648 48.4595C17.75 51.5374 21.7142 49.0385 26.7493 50.4874C29.5715 51.3199 31.2859 53.1304 33.9277 54.4354Z" fill="#003399"/>
<path fill-rule="evenodd" clip-rule="evenodd" d="M52.9647 63.3797V62.4032L53.6791 62.2217L52.9647 61.1357V59.3238L56.1789 63.8507L55.0355 64.1417L54.25 63.0182L52.9647 63.3797ZM52.9647 59.3238V61.1357L52.4647 60.4112L52.2502 62.5832L52.9647 62.4032V63.3797L52.1422 63.5612L52.0002 64.9021L50.8568 65.1916L51.6068 59.2878L52.7502 58.9983L52.9647 59.3238ZM42.322 66.5311V65.5891H42.572C42.964 65.5531 43.214 65.5171 43.322 65.4811C43.464 65.4451 43.6074 65.3356 43.6784 65.2276C43.7864 65.0821 43.8219 64.9381 43.8219 64.7566C43.7864 64.5751 43.7494 64.4311 43.6429 64.3217C43.5719 64.2137 43.4285 64.1417 43.2865 64.1042C43.143 64.0682 42.822 64.0682 42.322 64.1042V63.1637C42.6075 63.1637 42.785 63.1262 42.8575 63.1262C43.035 63.0902 43.1785 62.9822 43.2865 62.8727C43.393 62.7647 43.4285 62.6192 43.393 62.4392C43.393 62.2577 43.322 62.1122 43.214 62.0402C43.143 61.9322 42.9995 61.8587 42.785 61.8587C42.714 61.8587 42.572 61.8587 42.322 61.8962V60.9542C42.714 60.9182 42.9995 60.9182 43.1785 60.9542C43.393 60.9542 43.6074 61.0262 43.7864 61.1357C43.9639 61.2077 44.1074 61.3517 44.2494 61.5332C44.3574 61.7147 44.4284 61.9322 44.4639 62.1857C44.4994 62.4392 44.4284 62.6927 44.3219 62.9102C44.2139 63.1262 44.0364 63.3077 43.7864 63.4532C44.1429 63.5252 44.4284 63.6707 44.6074 63.8882C44.8218 64.1042 44.9283 64.3576 44.9638 64.6846C44.9638 64.9381 44.9283 65.1916 44.8573 65.4451C44.7494 65.6986 44.6073 65.8786 44.4284 66.0601C44.2139 66.2056 43.9994 66.3136 43.7139 66.3871C43.5364 66.4231 43.072 66.4591 42.393 66.5311H42.322ZM49.0715 63.4892L50.1779 63.6347C50.1069 64.2497 49.9279 64.7566 49.6069 65.1181C49.286 65.4451 48.8215 65.6986 48.2505 65.8066C47.5361 65.9161 46.8927 65.7706 46.3572 65.3731C45.7862 64.9381 45.4638 64.3217 45.2863 63.4532C45.1428 62.5472 45.2493 61.7867 45.6428 61.2077C46.0007 60.6272 46.5717 60.2657 47.3216 60.1202C48.0006 60.0122 48.536 60.1202 49.036 60.4472C49.3215 60.6272 49.5714 60.9182 49.7504 61.3517L48.715 61.7867C48.607 61.5332 48.428 61.3157 48.2136 61.2077C47.9636 61.0622 47.7136 61.0262 47.4281 61.0622C47.0361 61.1357 46.7507 61.3517 46.5362 61.6787C46.3217 62.0402 46.2862 62.5112 46.3927 63.1637C46.5362 63.8507 46.7507 64.3217 47.0361 64.5751C47.3216 64.8286 47.6781 64.9381 48.0716 64.8661C48.357 64.7926 48.5715 64.6486 48.7505 64.4311C48.928 64.2137 49.036 63.8882 49.0715 63.4892ZM42.322 60.9542V61.8962C42.1786 61.8962 42.0351 61.9322 41.8576 61.9322L41.2141 62.0042L41.3221 63.2717L42.0706 63.1997C42.1431 63.1997 42.2496 63.1997 42.322 63.1637V64.1042C42.322 64.1042 42.322 64.1042 42.2851 64.1042L41.4286 64.1777L41.5351 65.6626L42.322 65.5891V66.5311L40.5352 66.7126L40.0352 61.1717L42.2141 60.9902C42.2496 60.9542 42.2851 60.9542 42.322 60.9542ZM35.4291 64.6111V63.6707C35.6791 63.6707 35.8211 63.6347 35.9291 63.5972C36.0711 63.5612 36.179 63.4532 36.2855 63.3437C36.3565 63.1997 36.392 63.0542 36.392 62.9102C36.429 62.6927 36.3565 62.5472 36.25 62.4032C36.1435 62.2577 36.0001 62.1857 35.8211 62.1482C35.7146 62.1482 35.6066 62.1122 35.4291 62.1122V61.1717C35.9646 61.1717 36.2855 61.2077 36.4645 61.2797C36.7855 61.3517 37.0355 61.5332 37.25 61.8227C37.4644 62.1122 37.5709 62.4752 37.5354 62.9102C37.5354 63.2357 37.4644 63.5252 37.3565 63.7787C37.2145 63.9962 37.071 64.1777 36.8935 64.3217C36.679 64.4311 36.5 64.5031 36.2855 64.5751C36.0711 64.6111 35.7856 64.6111 35.4291 64.6111ZM35.4291 61.1717V62.1122C35.3211 62.1122 35.1791 62.1122 35.0002 62.1122L34.4647 62.0762V63.6707H35.0357C35.1791 63.6707 35.3211 63.6707 35.4291 63.6707V64.6111C35.3566 64.6111 35.2501 64.6111 35.1436 64.6111H34.4292L34.3922 66.7126L33.2858 66.6766L33.3923 61.1357L35.1436 61.1717C35.2501 61.1717 35.3566 61.1717 35.4291 61.1717ZM25.1075 64.0682V62.3657C25.4285 62.4392 25.6429 62.4392 25.7494 62.4392C25.8929 62.4032 25.9994 62.3657 26.1074 62.2577C26.1784 62.1482 26.2494 62.0402 26.2864 61.8587C26.3219 61.6787 26.2864 61.5332 26.2139 61.3877C26.1429 61.2437 25.9994 61.1717 25.8219 61.0982C25.7494 61.0622 25.4995 61.0262 25.1075 60.9542V60.0122L25.5719 60.0842C26.1429 60.1937 26.5363 60.3017 26.7863 60.4472C27.0363 60.5912 27.2138 60.8087 27.3218 61.0982C27.4283 61.3517 27.4638 61.6787 27.3928 62.0042C27.3218 62.4032 27.1428 62.7287 26.8573 62.9462C26.6074 63.1637 26.2139 63.2717 25.7139 63.2717C25.9284 63.4532 26.1074 63.6347 26.2139 63.8147C26.3574 64.0322 26.4994 64.3577 26.6783 64.8286L27.1428 66.0241L25.8574 65.7706L25.2865 64.4311C25.214 64.3216 25.1785 64.1777 25.1075 64.0682ZM28.2492 60.6272L29.3216 60.7367L29.0716 63.7427C29.0361 64.2137 29.0361 64.5391 29.0361 64.6486C29.0716 64.9021 29.1781 65.0821 29.3216 65.2276C29.5006 65.4091 29.7151 65.4811 30.0361 65.5171C30.357 65.5531 30.607 65.4811 30.7505 65.3731C30.928 65.2636 31.036 65.1181 31.107 64.9381C31.1425 64.7566 31.178 64.4311 31.2135 63.9962L31.4649 60.9182L32.5714 61.0262L32.3214 63.9242C32.2859 64.6111 32.2149 65.0821 32.1069 65.3356C32.0359 65.5891 31.8924 65.8426 31.7504 65.9881C31.5714 66.1696 31.3215 66.3136 31.036 66.3871C30.786 66.4951 30.428 66.4951 30.0006 66.4591C29.4636 66.4231 29.0716 66.3136 28.8217 66.1696C28.5717 66.0241 28.3572 65.8426 28.2137 65.6626C28.0717 65.4451 28.0007 65.2276 27.9637 65.0101C27.9282 64.6846 27.9282 64.2137 27.9637 63.5972L28.2492 60.6272ZM19.5709 62.2577L19.7854 61.3517L22.1077 61.9682L21.5353 64.1042C21.2498 64.2857 20.8933 64.3936 20.3934 64.4311C19.9289 64.4671 19.4999 64.4311 19.071 64.3217C18.5 64.1777 18.0356 63.9242 17.7146 63.5972C17.3566 63.2357 17.1436 62.8007 17.0357 62.3297C16.9647 61.8227 16.9647 61.3157 17.1067 60.8087C17.2501 60.2657 17.5001 59.7947 17.8566 59.3958C18.179 59.0343 18.6065 58.8168 19.108 58.7088C19.4999 58.5993 19.9644 58.6353 20.4644 58.7808C21.1078 58.9623 21.6078 59.2158 21.8932 59.6132C22.1787 59.9762 22.3222 60.4472 22.2852 60.9542L21.1788 60.8822C21.1788 60.5912 21.1078 60.3377 20.9288 60.1202C20.7498 59.9402 20.5354 59.7587 20.2144 59.6867C19.7499 59.5773 19.3579 59.6132 19 59.8307C18.6435 60.0482 18.3935 60.4832 18.2145 61.0622C18.0356 61.7147 18.0711 62.2217 18.25 62.6192C18.4645 63.0182 18.7855 63.2717 19.2145 63.3797C19.4644 63.4532 19.6789 63.4532 19.9289 63.4532C20.1789 63.4172 20.3934 63.3437 20.6078 63.2717L20.7853 62.5832L19.5709 62.2577ZM25.1075 60.0122L23.2496 59.6867L22.3222 65.1556L23.3931 65.3356L23.7851 63.0542L24.0351 63.0902C24.2865 63.1262 24.464 63.1997 24.572 63.2357C24.6785 63.3077 24.7495 63.4172 24.8575 63.5252C24.893 63.6347 24.9995 63.8147 25.1075 64.0682V62.3657C24.9995 62.3657 24.893 62.3297 24.7495 62.3297L23.9641 62.1857L24.1786 60.8087L25.0365 60.9542C25.072 60.9542 25.1075 60.9542 25.1075 60.9542V60.0122Z" fill="#003399"/>
</svg>
