<svg width="72" height="72" viewBox="0 0 72 72" fill="none" xmlns="http://www.w3.org/2000/svg">
<path d="M36 72C55.8823 72 72 55.8823 72 36C72 16.1177 55.8823 0 36 0C16.1177 0 0 16.1177 0 36C0 55.8823 16.1177 72 36 72Z" fill="#00AED6"/>
<path fill-rule="evenodd" clip-rule="evenodd" d="M56.9785 34.8817C56.8594 32.6918 55.8759 30.6368 54.2412 29.1625C52.6066 27.6882 50.4527 26.9135 48.2467 27.0066H25.5082C25.3104 27.0059 25.1146 26.9665 24.9321 26.8906C24.7496 26.8148 24.5839 26.704 24.4446 26.5646C24.3052 26.4252 24.1948 26.2598 24.1197 26.078C24.0447 25.8962 24.0064 25.7015 24.0071 25.505C24.0071 24.6755 24.6784 24.0035 25.5082 24.0035H48.548C48.4906 22.491 47.9514 21.0357 47.0083 19.8469C46.0651 18.6582 44.7665 17.7973 43.2994 17.3884C36.5865 16.203 29.7157 16.203 23.0028 17.3884C21.1329 17.8536 19.4467 18.8661 18.1631 20.2946C16.8795 21.7232 16.0575 23.5019 15.8039 25.4C14.7389 32.4658 14.7389 39.6497 15.8039 46.7155C16.1943 48.7186 17.1875 50.5569 18.6522 51.9874C20.1169 53.4179 21.9841 54.3733 24.0071 54.7271C32.3399 55.7623 40.7701 55.7623 49.103 54.7271C50.9151 54.3518 52.5625 53.4197 53.8118 52.0629C55.0611 50.7061 55.8491 48.9932 56.0641 47.167C56.804 43.1139 57.1159 38.9978 56.9785 34.8817ZM49.51 39.9218V41.2554C49.5106 41.4518 49.4724 41.6466 49.3973 41.8284C49.3223 42.0102 49.2119 42.1755 49.0725 42.3149C48.9331 42.4544 48.7674 42.5651 48.5849 42.641C48.4024 42.7168 48.2067 42.7562 48.0089 42.7569C47.811 42.7562 47.6153 42.7168 47.4328 42.641C47.2503 42.5651 47.0846 42.4544 46.9452 42.3149C46.8058 42.1755 46.6955 42.0102 46.6204 41.8284C46.5453 41.6466 46.5071 41.4518 46.5078 41.2554V39.9218C46.1659 39.6196 45.9245 39.2214 45.8158 38.7798C45.707 38.3382 45.7359 37.8743 45.8988 37.4494C46.0616 37.0246 46.3506 36.659 46.7275 36.401C47.1043 36.1431 47.5512 36.0051 48.0089 36.0052C48.4665 36.0051 48.9134 36.1431 49.2902 36.401C49.6671 36.659 49.9561 37.0246 50.1189 37.4494C50.2818 37.8743 50.3107 38.3382 50.202 38.7798C50.0932 39.2214 49.8519 39.6196 49.51 39.9218Z" fill="white"/>
</svg>
